<?xml version="1.0" standalone="no"?>

<!DOCTYPE svg PUBLIC "-//W3C//DTD SVG 1.1//EN" 
"http://www.w3.org/Graphics/SVG/1.1/DTD/svg11.dtd">

<svg width="100%" height="100%" version="1.1"
xmlns="http://www.w3.org/2000/svg">
<g>
<rect x="50" y="10" rx="50" ry="50" width="400" height="700" style="stroke:gray;fill:black;stroke-width:10;" />
 <defs>
    <linearGradient id="grad1" x1="0%" y1="0%" x2="100%" y2="0%">
      <stop offset="0%" style="stop-color:rgb(76,80,83);stop-opacity:1" />
      <stop offset="100%" style="stop-color:rgb(45,49,52);stop-opacity:1" />
    </linearGradient>
  </defs>
  <circle cx="250" cy="500" r="125" fill="url(#grad1)" />
  <circle cx="250" cy="500" r="45" fill="black" />
  <!-- 左边   -->
  <polygon points="152,500 167,495 167,505"
  style="fill:white;stroke:white;stroke-width:1"/>
  <polygon points="137,500 152,495 152,505"
  style="fill:white;stroke:white;stroke-width:1"/>
 <line x1="135" y1="495" x2="135" y2="505"
  style="fill:white;stroke:white;stroke-width:3"/>
  <!-- 右边   -->
  <polygon points="333,495 333,505 348,500"
  style="fill:white;stroke:white;stroke-width:1"/>
  <polygon points="348,505 348,495 363,500"
  style="fill:white;stroke:white;stroke-width:1"/>
 <line x1="365" y1="495" x2="365" y2="505"
  style="fill:white;stroke:white;stroke-width:3"/>
  <!-- 上边  -->
  <text x="226" y="397" fill="white" font-size="16px" font-weight="bolder">MENU</text>
  <!-- 下边  -->
  <polygon points="233,605 233,615 248,610"
  style="fill:white;stroke:white;stroke-width:1"/>
  <line x1="250" y1="605" x2="250" y2="615"
  style="fill:white;stroke:white;stroke-width:3"/>
  <line x1="259" y1="605" x2="259" y2="615"
  style="fill:white;stroke:white;stroke-width:3"/>
</g>
</svg>