<?xml version="1.0" encoding="utf-8"?>
<!-- Generator: Adobe Illustrator 18.0.0, SVG Export Plug-In . SVG Version: 6.00 Build 0)  -->
<!DOCTYPE svg PUBLIC "-//W3C//DTD SVG 1.1//EN" "http://www.w3.org/Graphics/SVG/1.1/DTD/svg11.dtd">
<svg version="1.1" id="隔离模式" xmlns="http://www.w3.org/2000/svg" xmlns:xlink="http://www.w3.org/1999/xlink" x="0px"
	 y="0px" viewBox="96.8 212.4 186.9 60" enable-background="new 96.8 212.4 186.9 60" xml:space="preserve">
<g>
	<g>
		<path fill="#4AA349" d="M125.5,253.6c-5.9,0.1-10.8-3.9-11.1-11.1c-0.3-6.8,5.6-11.3,11.3-11.4c6.5-0.1,10.3,7.3,10.3,7.3
			l16.8-6.2c0,0-6.9-18-25.5-18c-17.4-0.1-29.4,12.1-29.4,28.6c0,14.7,11.3,29.3,29,28.6c19.4-0.8,26.1-18,26.1-18l-17.2-5.7
			C135.7,247.7,132.3,253.6,125.5,253.6"/>
		<path fill="#3F8445" d="M125.7,272.4c-8.2,0-15.7-3.3-21.1-9.3c-5-5.5-7.8-12.9-7.8-20.4c0-8.3,3-15.8,8.5-21.2
			c5.6-5.4,13.3-8.4,22-8.4c10,0,16.7,5.1,20.5,9.3c4.1,4.6,5.9,9.1,5.9,9.3l0.4,0.9l-18.5,7l-0.4-0.8c-0.1-0.1-3.7-6.9-9.5-6.8
			c-2.8,0.1-5.7,1.4-7.7,3.5c-1.3,1.3-2.7,3.6-2.6,6.9c0.3,6.1,4.2,10.1,10,10.1h0.1c6.1,0,9.4-5.2,9.4-5.3l0.4-0.7l19,6.3l-0.4,1
			c-0.1,0.2-1.8,4.6-5.9,9c-3.9,4.2-10.6,9.2-21.1,9.5C126.4,272.4,126.1,272.4,125.7,272.4z M127.3,215.1c-8.1,0-15.4,2.8-20.6,7.8
			c-5.1,5.1-7.9,12.1-7.9,19.8c0,7,2.7,13.8,7.3,19c5,5.6,12,8.6,19.5,8.6c0.4,0,0.8,0,1.1,0c15.9-0.6,23-12.8,24.7-16.3l-15.4-5.1
			c-1.2,1.6-4.8,5.6-10.7,5.6h-0.1c-6.8,0-11.7-4.9-12-12.1c-0.1-3.2,0.9-6.1,3.1-8.4c2.3-2.5,5.8-4,9.1-4.1c0.1,0,0.1,0,0.3,0
			c5.7,0,9.4,5.1,10.6,7.1l15-5.6C149.6,227.9,142.5,215.1,127.3,215.1z"/>
	</g>
	<g>
		<path fill="#231F20" d="M162.2,234.2v-2.2h26.2v2.2h-5.1v8.7h6.1v2.3h-6.1v13.4h-3.5v-13.4H171c0.2,6.2-3,10.8-9.3,13.7v-2.2
			c4-2.5,5.9-6.3,5.8-11.4h-6.8v-2.3h6.8v-8.7H162.2z M171,234.2v8.7h8.9v-8.7H171z"/>
		<path fill="#231F20" d="M192.4,258.1c1.6-4.3,2.7-8.5,3-12.6h2.6c-0.3,4.2-1.1,8.3-2.5,12.6H192.4z M194.7,236.6
			c-0.3-1.8-1-3.7-2-5.9h2.6c1.1,2,1.8,4,2.3,5.9H194.7z M195.1,244.1c-0.5-2-1.2-4-2.1-6.1h2.7c1.1,1.9,1.8,3.9,2.2,6.1H195.1z
			 M198.2,258.8v-2.3c1.6-2.2,2.4-5.1,2.2-9v-15.7h20.7v2.1h-17.6v12.1C203.9,252,202.1,256.3,198.2,258.8z M203.6,257v-1.6
			c1.8-1.1,2.8-3,3.2-5.5h2.6C209.1,253.6,207.1,255.9,203.6,257z M205.5,248.4V237h3.7c0.3-0.6,0.6-1.4,0.6-2.3h3.1
			c-0.1,1-0.3,1.8-0.6,2.3h7.2v7.8c0.2,2.5-1.1,3.7-3.9,3.6h-1.6v6.7c0.1,2.3-1.2,3.4-3.9,3.4h-2v-2.1h1.4c1.1,0.1,1.7-0.4,1.6-1.5
			v-6.5H205.5z M208.5,239v2.7h8.3V239H208.5z M208.5,246.4h6.6c1.3,0,1.8-0.6,1.8-1.8v-1.1h-8.3V246.4z M221.5,257
			c-3.4-1.1-5.3-3.5-5.7-7.1h2.5c0.3,2.5,1.4,4.3,3.2,5.5V257z"/>
		<path fill="#231F20" d="M225.8,250.3v-15.1h11.1V230h3.5v5.2h11.1v10.6c0.1,3.1-1.3,4.6-4.1,4.5h-7v8.6h-3.5v-8.6H225.8z
			 M229.1,248.1h7.8v-10.6h-7.8V248.1z M248.2,237.5h-7.8v10.6h5.9c1.3,0,1.8-0.7,1.8-2.1L248.2,237.5L248.2,237.5z"/>
		<path fill="#231F20" d="M257.4,257.9v-26.5h26.2v22.4c0.1,2.8-1.3,4.2-4.2,4.1H257.4z M260.7,255.8h17.5c1.6,0.1,2.3-0.6,2.2-2
			v-20.3h-19.7V255.8z M262.4,238.5v-2.1h16.2v2.1h-6.7v4.2h6.1v2h-6.1v5.9h7.1v2h-16.9v-2h6.6v-5.9H263v-2h5.7v-4.2H262.4z
			 M275,249.6c-0.3-1.3-0.7-2.6-1.3-4h2.2c0.8,1.4,1.3,2.7,1.5,4H275z"/>
	</g>
</g>
</svg>
