<?xml version="1.0" encoding="utf-8"?>
<!-- Generator: Adobe Illustrator 18.0.0, SVG Export Plug-In . SVG Version: 6.00 Build 0)  -->
<!DOCTYPE svg PUBLIC "-//W3C//DTD SVG 1.1//EN" "http://www.w3.org/Graphics/SVG/1.1/DTD/svg11.dtd">
<svg version="1.1" id="图层_1" xmlns="http://www.w3.org/2000/svg" xmlns:xlink="http://www.w3.org/1999/xlink" x="0px" y="0px"
	 viewBox="0 0 120.1 39.6" enable-background="new 0 0 120.1 39.6" xml:space="preserve">
<g>
	<g>
		<path fill="#FF8300" d="M37.6,7.3c-0.8-4.7-1.9-5.6-6.5-6.4c-6.5-1.1-17.4-1.1-23.9,0C2.6,1.6,1.7,2.7,0.9,7.3
			c-1.1,6.5-1.1,17.4,0,23.9c0.8,4.7,1.8,5.6,6.5,6.4c6.5,1.1,17.4,1.1,23.9,0c4.7-0.8,5.6-1.8,6.4-6.5
			C38.7,24.7,38.7,13.7,37.6,7.3z"/>
		<g>
			<path fill="#C2531A" d="M15.1,12.9c-0.6,0.3-1.2,0.5-1.9,0.5c-2.1,0-3.8-1.7-3.8-3.8c0-2.1,1.7-3.8,3.8-3.8
				c0.7,0,1.3,0.2,1.9,0.5c4,2.3,4.3,2.3,8.3,0c0.6-0.3,1.2-0.5,1.9-0.5c2.1,0,3.8,1.7,3.8,3.8c0,2.1-1.7,3.8-3.8,3.8
				c-0.7,0-1.3-0.2-1.9-0.5C19.4,10.6,19.1,10.6,15.1,12.9z"/>
			<path fill="#C2531A" d="M19.2,17c0.3,0,0.6,0,0.8,0.1c0.1,0,0.4,0.1,0.5,0.2c3.3,1.3,4.9,1.8,8.9-0.5c0.6-0.3,1.2-0.5,1.9-0.5
				c2.1,0,3.8,1.7,3.8,3.8c0,2.1-1.7,3.8-3.8,3.8c-0.7,0-1.3-0.2-1.9-0.5c-4.3-2.5-6.5-2.1-9-0.9c-2.5,1.2-4.5,4.7-4.9,6
				c-0.1,0.3-0.2,0.5,0.3,0.5c2.7,0,5.2-0.6,8-1.7c2.6-1,5.1,0.7,5.8,3.2c0.6,2.1-0.8,4.1-3.3,3.9c-1.6-0.1-2.7-1.5-3.1-2.5
				c-0.5-1.2-0.2-1.6-0.7-1.4c-1.9,0.9-4.9,2.7-8.4,3.6c-0.4,0.1-1,0.2-1.4,0.2c-2.1,0-3.8-1.7-3.8-3.8c0-1.1,0.5-2,1.2-2.7
				c1.8-1.7,4-3.4,4.9-4.6c0.6-0.8,0.9-1.1,0.6-1.3c-0.8-0.6-2.7-0.8-6.6,1.4c-0.6,0.3-1.2,0.5-1.9,0.5c-2.1,0-3.8-1.7-3.8-3.8
				c0-2.1,1.7-3.8,3.8-3.8c0.7,0,1.3,0.2,1.9,0.5c4.1,2.4,5.3,2,8.9,0.6c0.1-0.1,0.4-0.2,0.5-0.2C18.7,17.1,18.9,17,19.2,17z"/>
		</g>
		<g>
			<path fill="#FFFFFF" d="M15.1,12c-0.6,0.3-1.2,0.5-1.9,0.5c-2.1,0-3.8-1.7-3.8-3.8c0-2.1,1.7-3.8,3.8-3.8c0.7,0,1.3,0.2,1.9,0.5
				c4,2.3,4.3,2.3,8.3,0C23.9,5.2,24.6,5,25.3,5C27.3,5,29,6.7,29,8.8c0,2.1-1.7,3.8-3.8,3.8c-0.7,0-1.3-0.2-1.9-0.5
				C19.4,9.7,19.1,9.7,15.1,12z"/>
			<path fill="#FFFFFF" d="M19.2,16.2c0.3,0,0.6,0,0.8,0.1c0.1,0,0.4,0.1,0.5,0.2c3.3,1.3,4.9,1.8,8.9-0.5c0.6-0.3,1.2-0.5,1.9-0.5
				c2.1,0,3.8,1.7,3.8,3.8c0,2.1-1.7,3.8-3.8,3.8c-0.7,0-1.3-0.2-1.9-0.5c-4.3-2.5-6.5-2.1-9-0.9c-2.5,1.2-4.5,4.7-4.9,6
				c-0.1,0.3-0.2,0.5,0.3,0.5c2.7,0,5.2-0.6,8-1.7c2.6-1,5.1,0.7,5.8,3.2c0.6,2.1-0.8,4.1-3.3,3.9c-1.6-0.1-2.7-1.5-3.1-2.5
				c-0.5-1.2-0.2-1.6-0.7-1.4c-1.9,0.9-4.9,2.7-8.4,3.6c-0.4,0.1-1,0.2-1.4,0.2c-2.1,0-3.8-1.7-3.8-3.8c0-1.1,0.5-2,1.2-2.7
				c1.8-1.7,4-3.4,4.9-4.6c0.6-0.8,0.9-1.1,0.6-1.3c-0.8-0.6-2.7-0.8-6.6,1.4c-0.6,0.3-1.2,0.5-1.9,0.5c-2.1,0-3.8-1.7-3.8-3.8
				c0-2.1,1.7-3.8,3.8-3.8c0.7,0,1.3,0.2,1.9,0.5c4.1,2.4,5.3,2,8.9,0.6c0.1-0.1,0.4-0.2,0.5-0.2C18.7,16.2,18.9,16.2,19.2,16.2z"/>
		</g>
		<linearGradient id="SVGID_1_" gradientUnits="userSpaceOnUse" x1="19.2288" y1="8.1503" x2="19.2288" y2="13.1638">
			<stop  offset="0" style="stop-color:#FFFFFF"/>
			<stop  offset="1" style="stop-color:#C6E9FA"/>
		</linearGradient>
		<path fill="url(#SVGID_1_)" d="M13.2,12.5c0.7,0,1.3-0.2,1.9-0.5c4-2.3,4.3-2.3,8.3,0c0.6,0.3,1.2,0.5,1.9,0.5
			c2.1,0,3.8-1.7,3.8-3.8c0-0.3,0-0.5-0.1-0.8c-0.3,1.7-1.9,3-3.7,3c-0.7,0-1.3-0.2-1.9-0.5c-4-2.3-4.3-2.3-8.3,0
			c-0.6,0.3-1.2,0.5-1.9,0.5c-1.8,0-3.3-1.3-3.7-3c0,0.2-0.1,0.5-0.1,0.7C9.4,10.8,11.1,12.5,13.2,12.5z"/>
		<linearGradient id="SVGID_2_" gradientUnits="userSpaceOnUse" x1="25.1535" y1="17.9293" x2="25.1535" y2="23.4489">
			<stop  offset="0" style="stop-color:#FFFFFF"/>
			<stop  offset="1" style="stop-color:#C6E9FA"/>
		</linearGradient>
		<path fill="url(#SVGID_2_)" d="M34.9,18.5c-0.3,1.7-1.9,3-3.7,3c-0.7,0-1.3-0.2-1.9-0.5c-4.3-2.5-6.5-2.1-9-0.9
			c-2.5,1.2-4.5,4.7-4.9,6c0,0.1,0,0.1,0,0.2c-0.3,1.1-0.1,1.7,0,1.3c0.1-0.3,0.3-0.7,0.4-1c0.8-1.6,2.5-4,4.5-5
			c2.5-1.2,4.6-1.6,9,0.9c0.6,0.3,1.2,0.5,1.9,0.5c2.1,0,3.8-1.7,3.8-3.8C35,19,35,18.7,34.9,18.5z"/>
		<linearGradient id="SVGID_3_" gradientUnits="userSpaceOnUse" x1="9.7051" y1="17.9289" x2="9.7051" y2="23.4489">
			<stop  offset="0" style="stop-color:#FFFFFF"/>
			<stop  offset="1" style="stop-color:#C6E9FA"/>
		</linearGradient>
		<path fill="url(#SVGID_3_)" d="M15,20.8c0.4,0.2,0.7,0.3,0.7,0.5c0,0.1-0.1,0.2-0.1,0.3c0.7-1.1,0.4-1.6,0-2
			c-0.8-0.6-2.7-0.9-6.6,1.4c-0.6,0.3-1.2,0.5-1.9,0.5c-1.8,0-3.3-1.3-3.7-3c0,0.2-0.1,0.5-0.1,0.7c0,2.1,1.7,3.8,3.8,3.8
			c0.7,0,1.3-0.2,1.9-0.5C12.1,20.6,14,20.5,15,20.8z"/>
		<linearGradient id="SVGID_4_" gradientUnits="userSpaceOnUse" x1="19.3511" y1="28.5198" x2="19.3511" y2="33.8681">
			<stop  offset="0" style="stop-color:#FFFFFF"/>
			<stop  offset="1" style="stop-color:#C6E9FA"/>
		</linearGradient>
		<path fill="url(#SVGID_4_)" d="M26.4,31.9c-1.6-0.1-2.7-1.5-3.1-2.5c-0.3-0.7-0.2-0.8-0.7-0.6c-1.9,0.9-4.9,1.8-8.4,2.8
			c-0.4,0.1-1,0.2-1.4,0.2c-1.8,0-3.3-1.3-3.7-3c0,0.2-0.1,0.5-0.1,0.7c0,2.1,1.7,3.8,3.8,3.8c0.4,0,1-0.1,1.4-0.2
			c3.6-1,6.5-2.7,8.4-3.6c0.5-0.2,0.2,0.2,0.7,1.4c0.4,1,1.5,2.4,3.1,2.5c2.4,0.2,3.8-1.7,3.3-3.7C29.3,31,28.1,32,26.4,31.9z"/>
	</g>
	<g>
		<g>
			<path fill="#58595B" d="M43.2,1.2h8.3V10l-1.6,1.5l1.6,1.4v6.5l-2.9,2.8h-1.9v1.5l-3.4,1.6V1.2z M46.7,10l1.4,0V4.1h-1.4V10z
				 M46.7,12.8v6.5h1.4v-6.5H46.7z"/>
			<polygon fill="#58595B" points="52,1.2 66.9,1.2 65.8,4.2 65.6,4.2 65.6,22.1 62.3,25.2 59.6,25.2 59.6,22.3 62,22.3 62,4.2 
				52,4.2 			"/>
			<path fill="#58595B" d="M52.9,6.5h8.3v13.1l-3,2.8h-5.3V6.5z M56.1,19.6h1.8V9.2h-1.8V19.6z"/>
			<path fill="#58595B" d="M70.1,22.6h9.2v-2.2h-9v-2.6h9v-2.6h-9V1.2h22.3V12l-4,3.1h-5.2v2.6h9.4l-1.3,2.6h-8.1v2.2h9.8l-1.2,2.7
				h-22V22.6z M79.3,3.8h-4.9v3h4.9V3.8z M79.3,9.5h-4.9v3.1h4.9V9.5z M88.6,3.8h-5.1v3h4.9l-1.1,2.6h-3.8v3.1h5.1V3.8z"/>
			<polygon fill="#58595B" points="96.5,1.2 120.1,1.2 118.5,4.4 96.5,4.4 			"/>
			<polygon fill="#58595B" points="120,25.2 117.3,14.6 113.1,14.6 114.8,22 101.5,22 105.4,13.1 118.5,13.1 120,9.9 96.5,9.9 
				96.5,13.1 101,13.1 96.7,22.4 96.7,25.2 114.5,25.2 115.1,23.2 115.6,25.2 			"/>
		</g>
	</g>
	<g>
		<path fill="#58595B" d="M88.4,36.3c-0.4,0-0.7-0.1-0.9-0.4c-0.3-0.2-0.4-0.5-0.4-0.9c0-0.4,0.1-0.6,0.4-0.9c0.3-0.2,0.6-0.3,1-0.3
			c0.4,0,0.7,0.1,1,0.3c0.3,0.2,0.4,0.5,0.4,0.9c0,0.4-0.1,0.7-0.4,0.9C89.1,36.2,88.8,36.3,88.4,36.3z"/>
		<path fill="#58595B" d="M44.1,28.9c0.8-0.4,1.9-0.6,2.8-0.6c2.5,0,3.5,1,3.5,3.3v1c0,0.8,0,1.4,0,2c0,0.6,0,1.1,0.1,1.7h-1.9
			c-0.1-0.4-0.1-0.9-0.1-1.2h0c-0.5,0.9-1.6,1.3-2.5,1.3c-1.4,0-2.9-0.8-2.9-2.3c0-1.2,0.6-1.8,1.4-2.2c0.8-0.4,1.9-0.5,2.8-0.5h1.2
			c0-1.3-0.6-1.7-1.8-1.7c-0.9,0-1.8,0.3-2.5,0.8L44.1,28.9z M46.6,35c0.7,0,1.2-0.3,1.5-0.7c0.3-0.4,0.4-1,0.4-1.6h-0.9
			c-1,0-2.4,0.2-2.4,1.3C45.3,34.7,45.9,35,46.6,35z"/>
		<path fill="#58595B" d="M52.4,25.2h2.1v11h-2.1V25.2z"/>
		<path fill="#58595B" d="M57.5,27.7c-0.4,0-0.7-0.1-1-0.3c-0.2-0.2-0.4-0.5-0.4-0.9c0-0.3,0.1-0.6,0.4-0.9c0.2-0.2,0.6-0.3,1-0.3
			c0.4,0,0.7,0.1,1,0.3c0.2,0.2,0.4,0.5,0.4,0.9c0,0.4-0.1,0.6-0.4,0.9C58.2,27.5,57.9,27.7,57.5,27.7z M56.5,28.5h2.1v7.8h-2.1
			V28.5z"/>
		<path fill="#58595B" d="M64.1,34.2L64.1,34.2l2-5.7h2.2l-3.1,7.7c-0.7,1.7-1.2,3.4-3.4,3.4c-0.5,0-1-0.1-1.5-0.2l0.1-1.5
			c0.3,0.1,0.6,0.1,1.1,0.1c0.9,0,1.4-0.6,1.4-1.4l-3.1-8.2h2.4L64.1,34.2z"/>
		<path fill="#58595B" d="M76.4,36.3h-2v-1.1h0c-0.7,0.8-1.6,1.2-2.7,1.2c-1.9,0-2.8-1.3-2.8-3.1v-4.9H71v4.2c0,1,0,2.2,1.4,2.2
			c1.5,0,1.9-1.6,1.9-2.6v-3.8h2.1V36.3z"/>
		<path fill="#58595B" d="M78.2,28.5h2v1.1h0c0.7-0.9,1.6-1.2,2.7-1.2c1.9,0,2.8,1.3,2.8,3.1v4.9h-2.1v-4.2c0-1,0-2.2-1.4-2.2
			c-1.5,0-1.9,1.6-1.9,2.6v3.8h-2.1V28.5z"/>
		<path fill="#58595B" d="M96.7,30.1c-0.4-0.2-0.8-0.3-1.4-0.3c-1.3,0-2.2,1-2.2,2.5c0,1.4,0.7,2.5,2.2,2.5c0.6,0,1.3-0.2,1.6-0.4
			l0.1,1.7c-0.6,0.2-1.3,0.3-2.1,0.3c-2.7,0-4-1.7-4-4.1c0-2.3,1.4-4,4-4c0.9,0,1.5,0.1,2.1,0.3L96.7,30.1z"/>
		<path fill="#58595B" d="M102.4,28.3c2.4,0,4.3,1.6,4.3,4.1c0,2.2-1.6,4-4.3,4c-2.7,0-4.3-1.8-4.3-4C98.1,29.8,100,28.3,102.4,28.3
			z M102.4,34.9c1.6,0,2.1-1.4,2.1-2.7c0-1.2-0.7-2.3-2.1-2.3c-1.4,0-2.1,1.2-2.1,2.3C100.3,33.5,100.8,34.9,102.4,34.9z"/>
		<path fill="#58595B" d="M108.1,28.5h2v1.1h0c0.7-1,1.6-1.3,2.4-1.3c1.1,0,2,0.4,2.4,1.4c0.5-0.9,1.6-1.4,2.6-1.4
			c2,0,2.6,1.3,2.6,3.1v4.9h-2.1v-4.6c0-0.7,0-1.8-1.2-1.8c-1.4,0-1.6,1.6-1.6,2.6v3.8H113v-4.6c0-0.7,0-1.8-1.2-1.8
			c-1.4,0-1.6,1.6-1.6,2.6v3.8h-2.1V28.5z"/>
	</g>
</g>
</svg>
